<svg xmlns="http://www.w3.org/2000/svg" viewBox="0 0 1000 500" role="img" aria-labelledby="title desc">
  <title id="title">Sachin T operation history</title>
  <desc id="desc">Career timeline covering Skoolic, cybersecurity instruction, and independent security research.</desc>
  <defs><pattern id="grid" width="28" height="28" patternUnits="userSpaceOnUse"><path d="M28 0H0V28" fill="none" stroke="#00ff9c" stroke-opacity=".035"/></pattern></defs>
  <style>text{font-family:"JetBrains Mono","SFMono-Regular",Consolas,monospace}.pulse{animation:pulse 2.5s ease-in-out infinite}@keyframes pulse{50%{opacity:.25}}@media(prefers-reduced-motion:reduce){*{animation:none!important}}</style>
  <rect width="1000" height="500" rx="16" fill="#080d12"/><rect x="1.5" y="1.5" width="997" height="497" rx="14.5" fill="url(#grid)" stroke="#27333b" stroke-width="3"/>
  <path d="M18 16h38M18 16v20M982 16h-38M982 16v20M18 484h38M18 484v-20M982 484h-38M982 484v-20" stroke="#00ff9c" stroke-width="2"/>
  <text x="28" y="43" fill="#00ff9c" font-size="18" font-weight="700">&gt; OPERATION HISTORY</text><text x="872" y="42" fill="#8297a3" font-size="11">TIMELINE: LIVE</text><circle cx="963" cy="37" r="5" fill="#00ff9c" class="pulse"/><path d="M22 64h956" stroke="#27333b"/>
  <path d="M91 110v310" stroke="#00d9ff" stroke-opacity=".45" stroke-width="2"/>
  <g>
    <circle cx="91" cy="134" r="9" fill="#080d12" stroke="#00ff9c" stroke-width="3"/><circle cx="91" cy="134" r="4" fill="#00ff9c" class="pulse"/>
    <text x="126" y="124" fill="#00d9ff" font-size="12">2024 — PRESENT</text><text x="126" y="151" fill="#f2fff9" font-size="18" font-weight="700">FOUNDER &amp; CEO // SKOOLIC</text>
    <text x="126" y="178" fill="#9bb0bb" font-size="13">Cybersecurity education, course development, workshops, webinars and community training.</text>
  </g>
  <g>
    <circle cx="91" cy="268" r="9" fill="#080d12" stroke="#00d9ff" stroke-width="3"/><circle cx="91" cy="268" r="4" fill="#00d9ff"/>
    <text x="126" y="258" fill="#00d9ff" font-size="12">2022 — 2025</text><text x="126" y="285" fill="#f2fff9" font-size="18" font-weight="700">LEAD CYBERSECURITY INSTRUCTOR // ADAOVI</text>
    <text x="126" y="312" fill="#9bb0bb" font-size="13">Ethical hacking, cryptography, network security, incident response, lab design and mentorship.</text>
  </g>
  <g>
    <circle cx="91" cy="402" r="9" fill="#080d12" stroke="#00ff9c" stroke-width="3"/><circle cx="91" cy="402" r="4" fill="#00ff9c" class="pulse"/>
    <text x="126" y="392" fill="#00d9ff" font-size="12">2021 — PRESENT</text><text x="126" y="419" fill="#f2fff9" font-size="18" font-weight="700">INDEPENDENT SECURITY RESEARCHER</text>
    <text x="126" y="446" fill="#9bb0bb" font-size="13">Authorized web and network testing, vulnerability assessment, reporting and remediation guidance.</text>
  </g>
</svg>
